<svg version="1.1" xmlns="http://www.w3.org/2000/svg" viewBox="0 0 879.3017980402171 162.49410995874905" width="879.3017980402171" height="162.49410995874905">
  <!-- svg-source:excalidraw -->
  
  <defs>
    <style class="style-fonts">
      @font-face {
        font-family: "Virgil";
        src: url("https://excalidraw.com/Virgil.woff2");
      }
      @font-face {
        font-family: "Cascadia";
        src: url("https://excalidraw.com/Cascadia.woff2");
      }
    </style>
  </defs>
  <rect x="0" y="0" width="879.3017980402171" height="162.49410995874905" fill="#ffffff"></rect><g stroke-linecap="round" transform="translate(10 10.22138268602157) rotate(0 158.18181818181813 32.72727272727275)"><path d="M16.36 0 M16.36 0 C93.33 -2.22, 172.49 -1.73, 300 0 M16.36 0 C93 -1.81, 168.74 -0.71, 300 0 M300 0 C310.47 1.76, 316.1 4.89, 316.36 16.36 M300 0 C312.41 -1.08, 316.4 5.75, 316.36 16.36 M316.36 16.36 C317.84 26.45, 317.97 35.41, 316.36 49.09 M316.36 16.36 C316.8 23.62, 316.78 30.92, 316.36 49.09 M316.36 49.09 C315.58 61.54, 309.78 66.79, 300 65.45 M316.36 49.09 C315.97 59.49, 311.45 63.3, 300 65.45 M300 65.45 C213.48 69.06, 124.87 68.39, 16.36 65.45 M300 65.45 C190.38 67.37, 80.36 66.89, 16.36 65.45 M16.36 65.45 C4.46 64.77, -0.45 59.14, 0 49.09 M16.36 65.45 C3.36 63.7, -2 57.89, 0 49.09 M0 49.09 C0.82 41.44, 0.88 32.38, 0 16.36 M0 49.09 C0.14 42.11, 0.99 34.06, 0 16.36 M0 16.36 C-0.31 5.98, 4.89 -0.66, 16.36 0 M0 16.36 C-1.68 3.39, 3.44 1.78, 16.36 0" stroke="#364fc7" stroke-width="1" fill="none"></path></g><g stroke-linecap="round" transform="translate(439.09090909090924 11.130473595112562) rotate(0 133.6363636363635 34.545454545454504)"><path d="M17.27 0 M17.27 0 C71.96 0.37, 124.48 -2.32, 250 0 M17.27 0 C73.23 -1.52, 128.41 -1.57, 250 0 M250 0 C263.29 -1.54, 267.41 6.13, 267.27 17.27 M250 0 C261.91 1.79, 267.65 4.71, 267.27 17.27 M267.27 17.27 C268.77 28.33, 266.82 39.99, 267.27 51.82 M267.27 17.27 C267.21 27.66, 266.75 35.72, 267.27 51.82 M267.27 51.82 C266.02 62.07, 259.81 68.91, 250 69.09 M267.27 51.82 C265.53 65.03, 259.91 70.04, 250 69.09 M250 69.09 C172.52 70.04, 93.74 71.08, 17.27 69.09 M250 69.09 C168.39 68.33, 87.77 68.26, 17.27 69.09 M17.27 69.09 C7.6 67.54, 1.34 65.24, 0 51.82 M17.27 69.09 C3.71 68.01, -1.69 63.04, 0 51.82 M0 51.82 C-0.01 44.56, 0.8 32.98, 0 17.27 M0 51.82 C-0.62 42.76, 0.03 33.5, 0 17.27 M0 17.27 C-0.08 5.57, 5.03 1.6, 17.27 0 M0 17.27 C2.11 6.86, 7.81 1.19, 17.27 0" stroke="#364fc7" stroke-width="1" fill="none"></path></g><g stroke-linecap="round"><g transform="translate(329.9999999999998 47.49410995874905) rotate(0 53.167455789550786 -0.9099100847815862)"><path d="M0.05 0.81 C18.01 0.4, 89.9 -2.25, 107.71 -2.63 M-1.38 0.19 C16.46 -0.07, 89.1 -0.89, 106.99 -1.52" stroke="#364fc7" stroke-width="1" fill="none"></path></g><g transform="translate(329.9999999999998 47.49410995874905) rotate(0 53.167455789550786 -0.9099100847815862)"><path d="M80.38 10.08 C86 5.56, 96.27 2.1, 106.18 -0.79 M78.35 9.78 C86.29 7.64, 92.84 4.12, 106.68 -1.65" stroke="#364fc7" stroke-width="1" fill="none"></path></g><g transform="translate(329.9999999999998 47.49410995874905) rotate(0 53.167455789550786 -0.9099100847815862)"><path d="M79.94 -10.44 C85.66 -8.86, 96.06 -6.22, 106.18 -0.79 M77.91 -10.73 C85.83 -7.78, 92.5 -6.21, 106.68 -1.65" stroke="#364fc7" stroke-width="1" fill="none"></path></g></g><mask></mask><g stroke-linecap="round"><g transform="translate(718.1818181818182 38.37768747429436) rotate(0 45.94895113202074 0.6672020540368067)"><path d="M-0.32 0.55 C15.01 0.58, 76.97 0.39, 92.21 0.53 M1.72 -0.21 C16.9 -0.08, 76.76 1.07, 91.47 1.54" stroke="#364fc7" stroke-width="1" fill="none"></path></g><g transform="translate(718.1818181818182 38.37768747429436) rotate(0 45.94895113202074 0.6672020540368067)"><path d="M63.96 11.77 C70.45 6.99, 80.96 4.95, 93.01 2.28 M63.27 11.65 C70.99 7.63, 78.51 6.22, 91.53 0.91" stroke="#364fc7" stroke-width="1" fill="none"></path></g><g transform="translate(718.1818181818182 38.37768747429436) rotate(0 45.94895113202074 0.6672020540368067)"><path d="M64.46 -8.75 C70.85 -6.96, 81.2 -2.43, 93.01 2.28 M63.77 -8.86 C71.16 -7.56, 78.55 -3.64, 91.53 0.91" stroke="#364fc7" stroke-width="1" fill="none"></path></g></g><mask></mask><g stroke-linecap="round"><g transform="translate(69.09090909090901 12.039564504203554) rotate(0 -0.8389532298725726 34.22784778351047)"><path d="M0.4 0.93 C0.08 12.11, -1.15 55.72, -1.37 67.11 M-0.85 0.37 C-1.33 11.66, -2.03 56.89, -2.08 68.08" stroke="#364fc7" stroke-width="1" fill="none"></path></g></g><mask></mask><g stroke-linecap="round"><g transform="translate(129.090909090909 12.948655413294091) rotate(0 -1.041724952262598 32.60900395012686)"><path d="M-0.32 -0.55 C-1.12 10.18, -3.49 53.51, -3.8 64.65 M1.71 1.77 C1.18 12.61, -0.92 55.33, -1.65 65.77" stroke="#364fc7" stroke-width="1" fill="none"></path></g></g><mask></mask><g stroke-linecap="round"><g transform="translate(193.63636363636374 12.039564504203554) rotate(0 -3.525537659024735 30.418603106028286)"><path d="M0.13 -0.15 C-0.97 10.01, -6.07 50.67, -7.18 61 M-1.26 -1.28 C-1.93 9.01, -3.87 51.36, -4.9 62.11" stroke="#364fc7" stroke-width="1" fill="none"></path></g></g><mask></mask><g stroke-linecap="round"><g transform="translate(252.72727272727275 12.948655413294091) rotate(0 -1.9838102191479265 32.443938872976105)"><path d="M0.09 1.06 C-0.61 11.35, -2.78 52.4, -3.61 62.76 M-1.31 0.57 C-2.15 11.59, -3.31 54.21, -4.06 64.32" stroke="#364fc7" stroke-width="1" fill="none"></path></g></g><mask></mask><g stroke-linecap="round"><g transform="translate(299.9999999999998 11.130473595112562) rotate(0 -1.2191354486527644 32.39912171572223)"><path d="M-0.14 -1.13 C-0.53 9.42, -0.98 53.55, -1.2 64.44 M-1.67 0.89 C-2.35 12.15, -2.16 55.17, -2.3 65.93" stroke="#364fc7" stroke-width="1" fill="none"></path></g></g><mask></mask><g stroke-linecap="round"><g transform="translate(486.36363636363626 12.948655413294091) rotate(0 -1.441825634193492 32.546536989862034)"><path d="M-0.13 0.65 C-0.43 11.35, -1.86 54.65, -2.12 65.15 M-1.66 -0.06 C-2.03 10.2, -2.71 52.58, -2.75 63.35" stroke="#364fc7" stroke-width="1" fill="none"></path></g></g><mask></mask><g stroke-linecap="round"><g transform="translate(535.4545454545453 15.675928140567066) rotate(0 -1.6919509839533475 29.810417225482297)"><path d="M0.34 -0.6 C-0.26 9.35, -2.24 48.68, -2.76 58.82 M-0.93 1.7 C-1.78 11.9, -3.29 50.75, -3.73 60.22" stroke="#364fc7" stroke-width="1" fill="none"></path></g></g><mask></mask><g stroke-linecap="round"><g transform="translate(581.8181818181818 12.039564504203554) rotate(0 -2.192847469997105 34.03750233304777)"><path d="M0.09 -1 C-0.54 10.43, -2.74 57.35, -3.25 69.08 M-1.32 1.08 C-2.21 12.14, -4.05 56.34, -4.48 67.43" stroke="#364fc7" stroke-width="1" fill="none"></path></g></g><mask></mask><g stroke-linecap="round"><g transform="translate(627.2727272727273 12.948655413294091) rotate(0 -1.9948628006534364 31.095294040780345)"><path d="M-0.12 -0.73 C-0.57 9.88, -2.39 52.47, -3.17 62.93 M-1.63 1.49 C-2.17 11.78, -3.73 50.66, -3.87 60.91" stroke="#364fc7" stroke-width="1" fill="none"></path></g></g><mask></mask><g stroke-linecap="round"><g transform="translate(679.0909090909092 14.766837231476075) rotate(0 -2.6027344391427505 30.913360132247817)"><path d="M0.01 -1.03 C-0.82 9.37, -4.33 51.2, -5.21 61.8 M-1.45 1.05 C-1.86 11.61, -2.62 52.39, -2.85 62.85" stroke="#364fc7" stroke-width="1" fill="none"></path></g></g><mask></mask><g transform="translate(311.81818181818176 15.675928140567066) rotate(0 -4.090909090909008 9.545454545454504)" stroke="none"><path fill="#364fc7" d="M 1.22,0.61 Q 1.22,0.61 0.86,1.74 0.51,2.87 -0.12,4.05 -0.76,5.23 -1.53,7.26 -2.30,9.28 -3.17,11.01 -4.05,12.74 -4.51,13.75 -4.98,14.76 -5.59,15.90 -6.21,17.04 -6.32,17.56 -6.44,18.07 -6.30,18.23 -6.16,18.38 -6.07,18.58 -5.99,18.78 -5.98,18.99 -5.96,19.20 -6.01,19.41 -6.06,19.61 -6.18,19.79 -6.29,19.97 -6.46,20.10 -6.63,20.23 -6.83,20.30 -7.03,20.38 -7.24,20.38 -7.45,20.39 -7.65,20.32 -7.86,20.26 -8.03,20.13 -8.20,20.01 -8.32,19.84 -8.45,19.66 -8.51,19.46 -8.57,19.26 -8.56,19.04 -8.56,18.83 -8.48,18.63 -8.41,18.43 -8.27,18.27 -8.14,18.10 -7.96,17.99 -7.78,17.88 -7.57,17.83 -7.37,17.78 -7.16,17.79 -6.94,17.81 -6.75,17.90 -6.55,17.98 -6.40,18.13 -6.24,18.27 -6.14,18.45 -6.03,18.64 -5.99,18.85 -5.95,19.06 -5.98,19.27 -6.01,19.48 -6.11,19.67 -6.21,19.86 -6.36,20.01 -6.51,20.16 -6.70,20.25 -6.89,20.34 -7.10,20.37 -7.31,20.40 -7.52,20.36 -7.73,20.32 -7.91,20.21 -8.10,20.10 -8.10,20.10 -8.10,20.11 -8.55,17.24 -9.00,14.38 -8.17,12.87 -7.35,11.36 -6.83,10.15 -6.30,8.95 -5.55,7.52 -4.79,6.09 -4.43,5.05 -4.08,4.01 -3.34,2.66 -2.60,1.30 -1.91,0.34 -1.22,-0.61 -1.13,-0.74 -1.03,-0.88 -0.91,-0.99 -0.79,-1.10 -0.65,-1.18 -0.50,-1.26 -0.35,-1.30 -0.19,-1.35 -0.02,-1.35 0.13,-1.35 0.29,-1.32 0.45,-1.28 0.60,-1.21 0.75,-1.13 0.87,-1.03 1.00,-0.92 1.10,-0.79 1.19,-0.65 1.25,-0.50 1.31,-0.35 1.34,-0.18 1.36,-0.02 1.34,0.13 1.33,0.30 1.27,0.45 1.22,0.61 1.22,0.61 L 1.22,0.61 Z"></path></g><g transform="translate(318.18181818181824 26.585019049658058) rotate(0 -7.272727272727366 12.72727272727252)" stroke="none"><path fill="#364fc7" d="M 0.74,1.11 Q 0.74,1.11 0.08,1.77 -0.57,2.44 -1.42,3.54 -2.26,4.64 -3.50,6.17 -4.73,7.70 -5.56,8.90 -6.39,10.10 -7.23,11.59 -8.07,13.09 -8.67,14.46 -9.27,15.83 -9.86,16.81 -10.44,17.78 -10.88,18.82 -11.31,19.87 -11.79,20.90 -12.27,21.94 -13.25,24.38 -14.22,26.82 -14.32,27.00 -14.43,27.19 -14.59,27.33 -14.75,27.47 -14.94,27.55 -15.14,27.63 -15.35,27.65 -15.56,27.67 -15.77,27.61 -15.97,27.56 -16.15,27.45 -16.33,27.33 -16.46,27.17 -16.60,27.00 -16.67,26.80 -16.74,26.60 -16.75,26.39 -16.75,26.18 -16.69,25.97 -16.62,25.77 -16.50,25.60 -16.37,25.43 -16.20,25.30 -16.03,25.18 -15.82,25.12 -15.62,25.06 -15.41,25.06 -15.20,25.07 -15.00,25.14 -14.80,25.22 -14.63,25.35 -14.47,25.49 -14.35,25.67 -14.24,25.85 -14.19,26.05 -14.14,26.26 -14.16,26.47 -14.18,26.68 -14.26,26.88 -14.35,27.07 -14.49,27.23 -14.63,27.39 -14.82,27.49 -15.00,27.59 -15.21,27.63 -15.42,27.67 -15.63,27.64 -15.84,27.61 -16.03,27.52 -16.22,27.42 -16.37,27.27 -16.52,27.12 -16.61,26.93 -16.71,26.74 -16.73,26.53 -16.76,26.32 -16.72,26.11 -16.68,25.90 -16.68,25.90 -16.68,25.90 -16.30,24.34 -15.92,22.78 -15.67,21.64 -15.42,20.51 -14.97,19.51 -14.51,18.52 -13.49,16.47 -12.47,14.42 -11.80,12.90 -11.13,11.37 -10.21,9.73 -9.29,8.10 -8.43,6.86 -7.57,5.62 -6.21,3.95 -4.85,2.28 -3.70,0.96 -2.55,-0.35 -1.64,-0.73 -0.74,-1.11 -0.59,-1.18 -0.45,-1.25 -0.29,-1.29 -0.13,-1.32 0.02,-1.32 0.18,-1.32 0.33,-1.28 0.49,-1.24 0.63,-1.16 0.77,-1.08 0.89,-0.97 1.01,-0.86 1.10,-0.73 1.19,-0.60 1.24,-0.45 1.30,-0.29 1.31,-0.13 1.33,0.02 1.31,0.18 1.29,0.34 1.23,0.49 1.17,0.63 1.07,0.77 0.98,0.90 0.86,1.00 0.74,1.11 0.74,1.11 L 0.74,1.11 Z"></path></g><g transform="translate(320.90909090909076 39.31229177693058) rotate(0 -7.727272727272748 13.181818181818244)" stroke="none"><path fill="#364fc7" d="M 1.12,0.74 Q 1.12,0.74 0.71,1.61 0.31,2.47 -0.57,3.83 -1.46,5.19 -2.36,6.56 -3.25,7.93 -3.98,9.08 -4.71,10.22 -5.60,11.31 -6.49,12.39 -7.83,14.44 -9.16,16.50 -9.73,17.48 -10.30,18.47 -11.29,19.99 -12.28,21.51 -12.86,22.83 -13.43,24.14 -13.57,24.75 -13.70,25.35 -13.56,25.51 -13.42,25.68 -13.34,25.87 -13.26,26.07 -13.25,26.28 -13.23,26.49 -13.29,26.70 -13.35,26.90 -13.46,27.08 -13.58,27.26 -13.75,27.39 -13.92,27.52 -14.12,27.58 -14.32,27.65 -14.53,27.65 -14.75,27.66 -14.95,27.59 -15.15,27.52 -15.32,27.39 -15.49,27.27 -15.61,27.09 -15.73,26.92 -15.79,26.71 -15.85,26.51 -15.83,26.30 -15.82,26.08 -15.75,25.89 -15.67,25.69 -15.53,25.52 -15.40,25.36 -15.21,25.25 -15.03,25.14 -14.83,25.09 -14.62,25.05 -14.41,25.07 -14.20,25.09 -14.00,25.18 -13.81,25.27 -13.65,25.41 -13.50,25.56 -13.40,25.75 -13.30,25.93 -13.26,26.14 -13.23,26.35 -13.26,26.56 -13.29,26.77 -13.39,26.96 -13.49,27.15 -13.64,27.29 -13.80,27.44 -13.99,27.53 -14.18,27.62 -14.39,27.65 -14.60,27.67 -14.81,27.63 -15.02,27.58 -15.20,27.47 -15.39,27.36 -15.39,27.36 -15.39,27.36 -16.13,25.22 -16.88,23.07 -16.13,21.38 -15.38,19.69 -14.39,18.18 -13.39,16.67 -12.77,15.60 -12.15,14.53 -11.37,13.35 -10.59,12.17 -9.91,11.14 -9.23,10.11 -8.47,9.20 -7.70,8.29 -7.00,7.21 -6.29,6.14 -5.36,4.77 -4.42,3.41 -3.41,2.03 -2.40,0.65 -1.76,-0.04 -1.12,-0.74 -1.01,-0.87 -0.90,-0.99 -0.77,-1.08 -0.64,-1.18 -0.49,-1.24 -0.34,-1.30 -0.18,-1.32 -0.02,-1.34 0.13,-1.32 0.30,-1.31 0.45,-1.25 0.60,-1.20 0.74,-1.11 0.87,-1.02 0.98,-0.90 1.09,-0.78 1.17,-0.64 1.25,-0.49 1.29,-0.34 1.33,-0.18 1.33,-0.02 1.33,0.14 1.30,0.29 1.26,0.45 1.19,0.60 1.12,0.74 1.12,0.74 L 1.12,0.74 Z"></path></g><g transform="translate(319.9999999999998 60.22138268602157) rotate(0 -5.454545454545382 7.272727272727252)" stroke="none"><path fill="#364fc7" d="M 0.76,1.14 Q 0.76,1.14 0.10,1.83 -0.54,2.52 -1.48,3.71 -2.41,4.90 -3.23,6.35 -4.05,7.81 -4.96,9.57 -5.86,11.32 -6.88,12.67 -7.90,14.01 -8.87,15.12 -9.84,16.23 -10.00,16.37 -10.15,16.52 -10.34,16.62 -10.53,16.71 -10.74,16.74 -10.95,16.76 -11.16,16.72 -11.37,16.68 -11.55,16.57 -11.74,16.47 -11.88,16.31 -12.02,16.15 -12.10,15.95 -12.18,15.75 -12.20,15.54 -12.21,15.33 -12.16,15.13 -12.11,14.92 -11.99,14.74 -11.87,14.56 -11.71,14.43 -11.54,14.30 -11.34,14.23 -11.14,14.16 -10.93,14.15 -10.71,14.15 -10.51,14.21 -10.31,14.28 -10.14,14.40 -9.97,14.53 -9.84,14.70 -9.72,14.88 -9.66,15.08 -9.60,15.28 -9.61,15.50 -9.62,15.71 -9.69,15.91 -9.77,16.11 -9.90,16.27 -10.04,16.44 -10.22,16.55 -10.40,16.66 -10.60,16.71 -10.81,16.76 -11.02,16.74 -11.23,16.72 -11.43,16.64 -11.62,16.55 -11.78,16.41 -11.94,16.26 -12.04,16.08 -12.14,15.89 -12.18,15.68 -12.22,15.47 -12.19,15.26 -12.16,15.05 -12.06,14.86 -11.96,14.67 -11.96,14.67 -11.96,14.67 -10.94,12.69 -9.92,10.70 -9.07,9.27 -8.23,7.84 -7.26,6.04 -6.30,4.25 -5.24,2.82 -4.17,1.40 -3.38,0.48 -2.58,-0.43 -1.67,-0.79 -0.76,-1.14 -0.61,-1.21 -0.46,-1.29 -0.30,-1.33 -0.14,-1.36 0.02,-1.36 0.18,-1.36 0.34,-1.32 0.50,-1.27 0.65,-1.19 0.80,-1.11 0.92,-1.00 1.04,-0.89 1.13,-0.75 1.22,-0.61 1.28,-0.46 1.34,-0.30 1.35,-0.14 1.37,0.02 1.35,0.18 1.33,0.35 1.26,0.50 1.20,0.65 1.11,0.79 1.01,0.92 0.88,1.03 0.76,1.14 0.76,1.14 L 0.76,1.14 Z"></path></g><g transform="translate(682.7272727272723 21.130473595112562) rotate(0 -1.363636363636033 1.8181818181817562)" stroke="none"><path fill="#364fc7" d="M -1.24,-0.41 Q -1.24,-0.41 -1.02,-1.21 -0.80,-2.02 -0.20,-3.18 0.40,-4.35 0.76,-5.35 1.12,-6.35 1.21,-6.52 1.30,-6.69 1.44,-6.84 1.57,-6.99 1.73,-7.10 1.89,-7.21 2.08,-7.27 2.26,-7.34 2.46,-7.36 2.66,-7.38 2.85,-7.36 3.05,-7.33 3.23,-7.26 3.41,-7.19 3.57,-7.07 3.73,-6.96 3.86,-6.81 3.99,-6.66 4.08,-6.48 4.17,-6.31 4.21,-6.12 4.26,-5.93 4.25,-5.73 4.25,-5.53 4.20,-5.34 4.15,-5.15 3.55,-3.42 2.94,-1.70 2.02,-0.57 1.09,0.54 0.29,2.36 -0.51,4.18 -1.06,5.20 -1.60,6.23 -2.62,7.64 -3.63,9.04 -3.51,9.21 -3.38,9.38 -3.31,9.59 -3.24,9.79 -3.24,10.00 -3.25,10.21 -3.31,10.41 -3.38,10.61 -3.51,10.78 -3.64,10.95 -3.82,11.07 -3.99,11.19 -4.20,11.25 -4.40,11.30 -4.62,11.29 -4.83,11.28 -5.02,11.20 -5.22,11.12 -5.38,10.98 -5.54,10.84 -5.65,10.66 -5.76,10.48 -5.81,10.27 -5.85,10.06 -5.83,9.85 -5.80,9.64 -5.71,9.45 -5.62,9.25 -5.48,9.10 -5.33,8.95 -5.14,8.85 -4.95,8.75 -4.75,8.72 -4.54,8.68 -4.33,8.72 -4.12,8.75 -3.93,8.85 -3.74,8.95 -3.60,9.11 -3.45,9.26 -3.36,9.46 -3.27,9.65 -3.25,9.86 -3.23,10.07 -3.28,10.28 -3.32,10.49 -3.43,10.67 -3.54,10.85 -3.71,10.99 -3.87,11.12 -4.07,11.20 -4.26,11.28 -4.48,11.29 -4.69,11.30 -4.89,11.24 -5.10,11.18 -5.27,11.06 -5.45,10.94 -5.45,10.94 -5.45,10.95 -5.52,8.23 -5.60,5.51 -5.09,4.52 -4.58,3.53 -3.95,2.41 -3.31,1.29 -2.48,-0.31 -1.64,-1.93 -0.72,-2.97 0.20,-4.01 0.66,-5.18 1.12,-6.35 1.21,-6.52 1.30,-6.69 1.44,-6.84 1.57,-6.99 1.73,-7.10 1.89,-7.20 2.08,-7.27 2.26,-7.34 2.46,-7.36 2.66,-7.38 2.85,-7.36 3.05,-7.33 3.23,-7.26 3.41,-7.19 3.57,-7.07 3.73,-6.96 3.86,-6.81 3.99,-6.66 4.08,-6.48 4.17,-6.31 4.21,-6.12 4.26,-5.93 4.25,-5.73 4.25,-5.53 4.20,-5.34 4.15,-5.15 3.46,-4.18 2.76,-3.21 2.30,-2.16 1.84,-1.11 1.54,-0.34 1.24,0.41 1.18,0.55 1.11,0.70 1.01,0.82 0.91,0.94 0.78,1.04 0.65,1.14 0.51,1.20 0.36,1.26 0.21,1.29 0.05,1.31 -0.10,1.30 -0.26,1.29 -0.41,1.24 -0.56,1.19 -0.69,1.10 -0.83,1.02 -0.94,0.90 -1.05,0.79 -1.13,0.65 -1.21,0.51 -1.25,0.36 -1.29,0.21 -1.30,0.05 -1.31,-0.10 -1.28,-0.26 -1.24,-0.41 -1.24,-0.41 L -1.24,-0.41 Z"></path></g><g transform="translate(697.2727272727273 22.94865541329409) rotate(0 -7.272727272727479 9.090909090909463)" stroke="none"><path fill="#364fc7" d="M 0.59,1.18 Q 0.59,1.18 -0.36,1.83 -1.32,2.49 -2.36,3.68 -3.40,4.86 -4.31,6.18 -5.22,7.49 -5.97,8.30 -6.73,9.12 -8.00,11.18 -9.28,13.23 -9.91,14.58 -10.55,15.94 -11.93,17.75 -13.32,19.57 -13.43,19.75 -13.53,19.93 -13.70,20.07 -13.86,20.21 -14.05,20.29 -14.25,20.37 -14.46,20.38 -14.68,20.39 -14.88,20.34 -15.09,20.28 -15.26,20.16 -15.44,20.04 -15.57,19.88 -15.70,19.71 -15.77,19.51 -15.84,19.31 -15.84,19.09 -15.84,18.88 -15.77,18.68 -15.70,18.48 -15.58,18.31 -15.45,18.14 -15.27,18.02 -15.10,17.90 -14.89,17.84 -14.69,17.78 -14.48,17.79 -14.27,17.80 -14.07,17.88 -13.87,17.96 -13.71,18.09 -13.54,18.23 -13.43,18.41 -13.32,18.59 -13.28,18.80 -13.23,19.01 -13.25,19.22 -13.27,19.43 -13.36,19.62 -13.45,19.82 -13.59,19.97 -13.74,20.13 -13.93,20.23 -14.11,20.33 -14.32,20.36 -14.53,20.40 -14.74,20.37 -14.95,20.33 -15.14,20.23 -15.33,20.14 -15.48,19.98 -15.62,19.83 -15.71,19.64 -15.80,19.44 -15.83,19.23 -15.85,19.02 -15.81,18.81 -15.76,18.61 -15.76,18.61 -15.76,18.61 -14.74,16.49 -13.71,14.37 -12.90,12.73 -12.09,11.09 -11.40,10.23 -10.72,9.36 -10.01,8.06 -9.30,6.76 -8.18,5.52 -7.06,4.28 -5.89,2.83 -4.72,1.38 -3.78,0.48 -2.85,-0.40 -1.72,-0.79 -0.59,-1.18 -0.44,-1.23 -0.29,-1.29 -0.13,-1.30 0.02,-1.32 0.18,-1.30 0.34,-1.27 0.49,-1.21 0.63,-1.16 0.76,-1.06 0.89,-0.97 1.00,-0.85 1.10,-0.73 1.17,-0.58 1.24,-0.44 1.28,-0.28 1.31,-0.13 1.31,0.02 1.31,0.18 1.27,0.33 1.22,0.49 1.15,0.63 1.07,0.77 0.96,0.89 0.85,1.00 0.72,1.09 0.59,1.18 0.59,1.18 L 0.59,1.18 Z"></path></g><g transform="translate(699.0909090909092 31.130473595112562) rotate(0 -11.363636363636488 15)" stroke="none"><path fill="#364fc7" d="M 1.04,0.83 Q 1.04,0.83 0.09,2.21 -0.84,3.60 -1.98,5.32 -3.11,7.03 -3.89,8.16 -4.67,9.28 -5.58,10.36 -6.49,11.44 -8.18,13.60 -9.87,15.75 -11.12,17.06 -12.37,18.38 -13.32,19.85 -14.27,21.32 -15.01,22.30 -15.75,23.29 -16.55,24.44 -17.36,25.60 -18.29,26.69 -19.21,27.77 -20.38,29.17 -21.54,30.56 -21.66,30.74 -21.78,30.91 -21.95,31.04 -22.13,31.16 -22.33,31.23 -22.53,31.29 -22.74,31.29 -22.96,31.29 -23.16,31.22 -23.36,31.15 -23.52,31.01 -23.69,30.88 -23.81,30.71 -23.92,30.53 -23.98,30.32 -24.03,30.12 -24.02,29.90 -24.00,29.69 -23.92,29.50 -23.84,29.30 -23.70,29.14 -23.56,28.98 -23.37,28.87 -23.19,28.77 -22.98,28.73 -22.77,28.68 -22.56,28.71 -22.35,28.74 -22.16,28.83 -21.97,28.92 -21.82,29.07 -21.66,29.22 -21.57,29.41 -21.47,29.60 -21.44,29.81 -21.41,30.02 -21.45,30.22 -21.48,30.43 -21.59,30.62 -21.69,30.81 -21.85,30.95 -22.00,31.09 -22.20,31.18 -22.39,31.27 -22.60,31.29 -22.81,31.31 -23.02,31.26 -23.23,31.21 -23.41,31.09 -23.59,30.98 -23.72,30.82 -23.86,30.65 -23.93,30.46 -24.01,30.26 -24.02,30.04 -24.03,29.83 -23.97,29.63 -23.91,29.42 -23.91,29.42 -23.91,29.43 -22.87,27.49 -21.83,25.55 -21.02,24.58 -20.20,23.62 -19.36,22.41 -18.52,21.20 -17.85,20.31 -17.18,19.41 -16.03,17.70 -14.89,15.98 -13.68,14.72 -12.47,13.45 -11.48,12.36 -10.50,11.26 -9.80,10.23 -9.10,9.19 -8.26,8.25 -7.43,7.30 -5.91,5.38 -4.39,3.47 -3.86,2.54 -3.33,1.62 -2.18,0.39 -1.04,-0.83 -0.92,-0.94 -0.81,-1.05 -0.67,-1.13 -0.53,-1.22 -0.38,-1.26 -0.22,-1.31 -0.06,-1.32 0.09,-1.32 0.25,-1.29 0.40,-1.26 0.55,-1.20 0.70,-1.13 0.82,-1.03 0.95,-0.93 1.04,-0.80 1.14,-0.67 1.21,-0.53 1.27,-0.38 1.30,-0.22 1.33,-0.06 1.31,0.09 1.30,0.25 1.25,0.40 1.20,0.55 1.12,0.69 1.03,0.83 1.04,0.83 L 1.04,0.83 Z"></path></g><g transform="translate(698.1818181818182 44.766837231476075) rotate(0 -10 14.090909090909008)" stroke="none"><path fill="#364fc7" d="M 0.96,0.96 Q 0.96,0.96 0.02,2.11 -0.91,3.26 -1.78,4.44 -2.65,5.62 -3.86,7.00 -5.07,8.38 -5.76,9.38 -6.45,10.38 -7.60,11.72 -8.76,13.05 -9.64,14.52 -10.52,15.98 -11.52,17.26 -12.52,18.53 -13.07,19.67 -13.62,20.81 -14.51,22.03 -15.40,23.24 -16.12,24.65 -16.84,26.06 -17.35,26.90 -17.86,27.73 -17.93,27.87 -18.00,28.01 -18.11,28.13 -18.21,28.25 -18.34,28.34 -18.48,28.43 -18.62,28.49 -18.77,28.54 -18.93,28.56 -19.09,28.58 -19.24,28.56 -19.40,28.54 -19.55,28.49 -19.70,28.43 -19.83,28.34 -19.96,28.25 -20.06,28.13 -20.17,28.01 -20.24,27.87 -20.31,27.73 -20.35,27.58 -20.39,27.43 -20.39,27.27 -20.39,27.11 -20.35,26.96 -20.31,26.80 -20.18,26.59 -20.05,26.38 -19.88,26.25 -19.72,26.12 -19.52,26.05 -19.32,25.97 -19.10,25.97 -18.89,25.97 -18.69,26.03 -18.49,26.10 -18.32,26.23 -18.15,26.35 -18.02,26.53 -17.90,26.70 -17.84,26.90 -17.78,27.11 -17.79,27.32 -17.80,27.53 -17.88,27.73 -17.95,27.93 -18.09,28.09 -18.22,28.26 -18.40,28.37 -18.58,28.48 -18.79,28.53 -19.00,28.58 -19.21,28.56 -19.42,28.54 -19.61,28.45 -19.81,28.36 -19.96,28.22 -20.12,28.08 -20.22,27.89 -20.32,27.70 -20.36,27.50 -20.40,27.29 -20.37,27.08 -20.34,26.87 -20.24,26.68 -20.14,26.49 -19.99,26.34 -19.84,26.19 -19.65,26.10 -19.45,26.01 -19.24,25.98 -19.03,25.96 -18.82,26.00 -18.62,26.04 -18.43,26.15 -18.25,26.26 -18.11,26.42 -17.97,26.58 -17.89,26.77 -17.81,26.97 -17.79,27.18 -17.78,27.39 -17.83,27.60 -17.89,27.80 -17.87,27.77 -17.86,27.73 -17.93,27.87 -18.00,28.01 -18.11,28.13 -18.21,28.25 -18.34,28.34 -18.47,28.43 -18.62,28.49 -18.77,28.54 -18.93,28.56 -19.09,28.58 -19.24,28.56 -19.40,28.54 -19.55,28.49 -19.70,28.43 -19.83,28.34 -19.96,28.25 -20.06,28.13 -20.17,28.01 -20.24,27.87 -20.31,27.73 -20.35,27.58 -20.39,27.43 -20.39,27.27 -20.39,27.11 -20.35,26.96 -20.31,26.80 -20.11,24.88 -19.90,22.96 -19.24,21.91 -18.58,20.85 -17.86,19.93 -17.14,19.00 -16.36,17.56 -15.59,16.12 -14.69,15.01 -13.80,13.91 -12.69,12.22 -11.58,10.54 -10.52,9.39 -9.45,8.24 -8.60,7.08 -7.75,5.93 -6.57,4.70 -5.39,3.46 -4.33,2.19 -3.26,0.91 -2.11,-0.02 -0.96,-0.96 -0.83,-1.06 -0.70,-1.17 -0.55,-1.23 -0.40,-1.30 -0.24,-1.33 -0.08,-1.36 0.08,-1.35 0.24,-1.34 0.40,-1.29 0.56,-1.24 0.70,-1.16 0.84,-1.07 0.96,-0.96 1.07,-0.84 1.16,-0.70 1.24,-0.56 1.29,-0.40 1.34,-0.24 1.35,-0.08 1.36,0.08 1.33,0.24 1.30,0.40 1.23,0.55 1.17,0.70 1.06,0.83 0.96,0.96 0.96,0.96 L 0.96,0.96 Z"></path></g><g transform="translate(695.4545454545453 59.31229177693058) rotate(0 -5.909090909090992 8.63636363636374)" stroke="none"><path fill="#364fc7" d="M 1.07,0.80 Q 1.07,0.80 0.51,2.02 -0.03,3.23 -1.41,5.19 -2.78,7.15 -3.66,8.11 -4.54,9.08 -5.56,10.73 -6.57,12.38 -7.91,14.00 -9.25,15.63 -10.05,16.90 -10.86,18.17 -10.98,18.27 -11.11,18.37 -11.25,18.44 -11.39,18.51 -11.55,18.54 -11.70,18.58 -11.86,18.57 -12.02,18.57 -12.17,18.52 -12.32,18.48 -12.46,18.40 -12.60,18.32 -12.71,18.21 -12.83,18.10 -12.91,17.97 -13.00,17.84 -13.05,17.69 -13.10,17.54 -13.11,17.38 -13.13,17.22 -13.10,17.06 -13.08,16.91 -13.02,16.76 -12.95,16.62 -12.86,16.49 -12.76,16.36 -12.14,16.18 -11.52,15.99 -11.32,16.07 -11.13,16.15 -10.97,16.29 -10.80,16.43 -10.70,16.61 -10.59,16.79 -10.55,17.00 -10.50,17.21 -10.53,17.42 -10.55,17.63 -10.64,17.82 -10.73,18.01 -10.88,18.17 -11.03,18.32 -11.22,18.42 -11.41,18.52 -11.62,18.55 -11.83,18.58 -12.03,18.54 -12.24,18.51 -12.43,18.41 -12.62,18.31 -12.76,18.15 -12.91,17.99 -12.99,17.80 -13.08,17.61 -13.10,17.40 -13.12,17.18 -13.08,16.98 -13.03,16.77 -12.92,16.59 -12.81,16.41 -12.64,16.27 -12.48,16.14 -12.28,16.06 -12.08,15.98 -11.87,15.97 -11.66,15.96 -11.46,16.02 -11.25,16.08 -11.08,16.20 -10.90,16.32 -10.77,16.49 -10.65,16.66 -10.58,16.87 -10.52,17.07 -10.52,17.28 -10.52,17.49 -10.59,17.69 -10.66,17.89 -10.79,18.06 -10.92,18.23 -11.10,18.35 -11.27,18.46 -11.48,18.52 -11.68,18.57 -11.27,18.37 -10.86,18.17 -10.98,18.27 -11.11,18.37 -11.25,18.44 -11.39,18.51 -11.55,18.54 -11.70,18.58 -11.86,18.57 -12.02,18.57 -12.17,18.52 -12.32,18.48 -12.46,18.40 -12.60,18.32 -12.71,18.21 -12.83,18.10 -12.91,17.97 -13.00,17.84 -13.05,17.69 -13.10,17.54 -13.11,17.38 -13.13,17.22 -13.10,17.07 -13.08,16.91 -13.02,16.76 -12.95,16.62 -12.86,16.49 -12.76,16.36 -12.49,14.64 -12.22,12.91 -11.13,11.64 -10.04,10.37 -9.48,9.40 -8.91,8.43 -8.19,7.40 -7.47,6.37 -6.65,5.50 -5.82,4.63 -5.12,3.81 -4.41,3.00 -3.75,1.97 -3.09,0.94 -2.08,0.07 -1.07,-0.80 -0.95,-0.92 -0.84,-1.03 -0.71,-1.12 -0.57,-1.20 -0.42,-1.26 -0.26,-1.31 -0.10,-1.32 0.05,-1.33 0.21,-1.31 0.37,-1.28 0.52,-1.22 0.66,-1.16 0.79,-1.06 0.92,-0.96 1.02,-0.84 1.13,-0.71 1.20,-0.57 1.27,-0.42 1.30,-0.26 1.33,-0.10 1.32,0.05 1.32,0.21 1.27,0.36 1.23,0.52 1.15,0.66 1.07,0.80 1.07,0.80 L 1.07,0.80 Z"></path></g><g transform="translate(818.1818181818187 29.312291776931033) rotate(0 25.55998992919922 12.5)"><text x="0" y="0" font-family="Virgil, Segoe UI Emoji" font-size="20px" fill="#364fc7" text-anchor="start" style="white-space: pre;" direction="ltr" dominant-baseline="text-before-edge">NULL</text></g><g transform="translate(218.18181818181824 127.49410995874905) rotate(0 165.3898468017578 12.5)"><text x="0" y="0" font-family="Virgil, Segoe UI Emoji" font-size="20px" fill="#364fc7" text-anchor="start" style="white-space: pre;" direction="ltr" dominant-baseline="text-before-edge">Fixed width blocks linked together</text></g><g transform="translate(99.09090909090901 98.40320086783959) rotate(0 33.181818181818244 15.000000000000227)" stroke="none"><path fill="#364fc7" d="M -1.31,0 Q -1.31,0 -1.56,-1.30 -1.82,-2.61 -1.88,-3.69 -1.94,-4.76 -2.27,-5.79 -2.61,-6.82 -2.58,-7.07 -2.55,-7.32 -2.46,-7.55 -2.37,-7.79 -2.22,-7.99 -2.08,-8.20 -1.89,-8.37 -1.70,-8.54 -1.48,-8.65 -1.26,-8.77 -1.01,-8.83 -0.77,-8.89 -0.52,-8.89 -0.27,-8.89 -0.02,-8.83 0.21,-8.77 0.44,-8.65 0.66,-8.53 0.85,-8.37 1.04,-8.20 1.18,-7.99 1.32,-7.79 1.41,-7.55 1.50,-7.32 1.53,-7.07 1.56,-6.82 0.35,-5.63 -0.86,-4.45 -1.46,-3.54 -2.05,-2.63 -3.07,-1.25 -4.09,0.13 -4.73,1.17 -5.38,2.20 -6.19,3.48 -7.01,4.75 -7.83,6.27 -8.65,7.78 -9.34,10.06 -10.03,12.34 -9.89,13.57 -9.75,14.79 -9.47,16.09 -9.19,17.39 -7.87,19.27 -6.55,21.14 -5.08,22.39 -3.60,23.63 -2.21,24.67 -0.82,25.72 0.93,26.61 2.70,27.50 5.07,28.70 7.44,29.91 9.05,30.35 10.66,30.79 13.02,31.53 15.39,32.28 18.10,32.83 20.81,33.37 23.80,33.86 26.79,34.36 29.80,34.56 32.81,34.76 34.89,34.85 36.97,34.94 39.67,34.98 42.36,35.02 44.43,34.79 46.50,34.55 49.08,34.44 51.66,34.33 54.21,34.03 56.76,33.73 59.14,33.34 61.51,32.95 63.68,32.77 65.84,32.59 67.08,32.28 68.32,31.97 69.64,31.58 70.97,31.19 72.96,30.68 74.95,30.18 76.07,31.42 77.18,32.66 76.04,33.23 74.91,33.80 73.53,34.84 72.15,35.88 72.05,36.06 71.95,36.25 71.79,36.40 71.64,36.54 71.44,36.63 71.25,36.72 71.04,36.74 70.83,36.76 70.62,36.71 70.41,36.67 70.23,36.56 70.05,36.45 69.91,36.28 69.78,36.12 69.70,35.92 69.62,35.72 69.61,35.51 69.60,35.30 69.66,35.10 69.72,34.89 69.84,34.72 69.96,34.54 70.13,34.41 70.30,34.29 70.50,34.22 70.70,34.15 70.91,34.15 71.12,34.15 71.32,34.22 71.53,34.29 71.69,34.42 71.86,34.55 71.98,34.73 72.10,34.90 72.15,35.11 72.21,35.31 72.20,35.53 72.19,35.74 72.11,35.94 72.03,36.13 71.89,36.29 71.75,36.46 71.57,36.56 71.38,36.67 71.18,36.72 70.97,36.76 70.76,36.74 70.55,36.71 70.35,36.62 70.16,36.53 70.01,36.39 69.85,36.24 69.76,36.05 69.66,35.86 69.62,35.65 69.59,35.44 69.63,35.23 69.66,35.02 69.66,35.02 69.66,35.02 70.99,32.71 72.32,30.39 73.56,29.88 74.79,29.37 75.89,29.06 76.98,28.75 78.10,29.15 79.22,29.55 79.61,30.77 80.00,31.98 78.10,33.21 76.20,34.44 74.20,34.94 72.21,35.45 70.77,35.86 69.34,36.27 67.77,36.63 66.20,36.99 64.20,37.14 62.21,37.29 59.74,37.68 57.26,38.07 54.55,38.38 51.84,38.69 49.41,38.79 46.98,38.89 44.64,39.14 42.30,39.40 39.54,39.36 36.78,39.32 34.65,39.23 32.51,39.14 29.29,38.91 26.07,38.68 23.00,38.16 19.93,37.64 17.00,37.04 14.07,36.43 11.77,35.70 9.47,34.97 7.48,34.38 5.50,33.80 3.10,32.60 0.70,31.40 -1.37,30.32 -3.45,29.24 -4.95,28.12 -6.45,26.99 -8.10,25.59 -9.74,24.18 -11.17,22.54 -12.61,20.90 -13.05,19.59 -13.50,18.27 -13.81,16.65 -14.12,15.03 -14.15,13.07 -14.18,11.10 -13.75,9.80 -13.32,8.50 -12.86,7.12 -12.40,5.73 -11.48,4.08 -10.56,2.44 -9.75,1.21 -8.93,-0.01 -8.19,-1.18 -7.45,-2.35 -6.44,-3.70 -5.43,-5.05 -4.02,-5.93 -2.61,-6.82 -2.58,-7.07 -2.55,-7.32 -2.46,-7.55 -2.37,-7.79 -2.22,-7.99 -2.08,-8.20 -1.89,-8.37 -1.70,-8.53 -1.48,-8.65 -1.26,-8.77 -1.01,-8.83 -0.77,-8.89 -0.52,-8.89 -0.27,-8.89 -0.02,-8.83 0.21,-8.77 0.44,-8.65 0.66,-8.54 0.85,-8.37 1.04,-8.20 1.18,-7.99 1.32,-7.79 1.41,-7.55 1.50,-7.32 1.53,-7.07 1.56,-6.82 1.75,-5.79 1.94,-4.76 1.88,-3.69 1.82,-2.61 1.56,-1.30 1.31,0 1.29,0.15 1.27,0.31 1.22,0.46 1.16,0.61 1.07,0.74 0.98,0.87 0.86,0.97 0.74,1.08 0.60,1.15 0.46,1.23 0.31,1.26 0.15,1.30 -0.00,1.30 -0.15,1.30 -0.31,1.26 -0.46,1.23 -0.60,1.15 -0.74,1.08 -0.86,0.97 -0.98,0.87 -1.07,0.74 -1.16,0.61 -1.22,0.46 -1.27,0.31 -1.29,0.15 -1.31,-0.00 -1.31,-0.00 L -1.31,0 Z"></path></g><g transform="translate(160 120.22138268602157) rotate(0 10 10.454545454545496)" stroke="none"><path fill="#364fc7" d="M 0.33,-1.32 Q 0.33,-1.32 1.44,-1.32 2.55,-1.33 4.40,-0.52 6.26,0.27 7.79,1.26 9.33,2.25 11.35,3.43 13.38,4.61 14.98,5.69 16.59,6.77 18.06,7.77 19.54,8.78 20.26,10.69 20.98,12.61 20.21,13.49 19.44,14.36 18.45,14.93 17.46,15.50 16.66,16.61 15.86,17.72 14.48,19.88 13.11,22.04 13.04,22.24 12.97,22.44 12.84,22.61 12.71,22.77 12.53,22.89 12.36,23.01 12.15,23.06 11.95,23.12 11.73,23.11 11.52,23.09 11.32,23.01 11.13,22.93 10.97,22.79 10.81,22.66 10.70,22.47 10.59,22.29 10.55,22.08 10.50,21.87 10.53,21.66 10.55,21.45 10.64,21.26 10.73,21.07 10.88,20.91 11.03,20.76 11.21,20.66 11.40,20.57 11.61,20.53 11.82,20.50 12.03,20.54 12.24,20.57 12.43,20.67 12.62,20.77 12.76,20.93 12.91,21.08 12.99,21.28 13.08,21.47 13.10,21.68 13.12,21.89 13.08,22.10 13.03,22.31 12.92,22.49 12.81,22.67 12.64,22.81 12.48,22.94 12.28,23.02 12.09,23.10 11.87,23.11 11.66,23.12 11.46,23.06 11.25,23.00 11.08,22.88 10.90,22.76 10.78,22.59 10.65,22.42 10.58,22.22 10.52,22.02 10.52,21.80 10.52,21.59 10.52,21.59 10.52,21.59 11.14,19.29 11.77,16.99 12.64,15.61 13.50,14.23 14.67,12.87 15.85,11.51 17.14,10.79 18.43,10.06 17.84,11.03 17.24,12.00 16.22,11.40 15.19,10.80 14.11,9.92 13.04,9.03 11.24,7.80 9.45,6.57 7.67,5.59 5.90,4.60 4.96,4.04 4.03,3.49 2.83,2.93 1.62,2.37 0.64,1.84 -0.33,1.32 -0.48,1.26 -0.63,1.20 -0.77,1.10 -0.90,1.01 -1.01,0.89 -1.12,0.76 -1.19,0.62 -1.27,0.47 -1.31,0.31 -1.35,0.15 -1.35,-0.00 -1.35,-0.16 -1.31,-0.32 -1.27,-0.48 -1.19,-0.63 -1.11,-0.77 -1.00,-0.89 -0.89,-1.02 -0.76,-1.11 -0.62,-1.20 -0.47,-1.26 -0.32,-1.32 -0.15,-1.34 0.00,-1.36 0.16,-1.34 0.33,-1.32 0.33,-1.32 L 0.33,-1.32 Z"></path></g><g transform="translate(596.3636363636363 103.85774632238508) rotate(0 -10 12.727272727272748)" stroke="none"><path fill="#364fc7" d="M -1.35,0 Q -1.35,0 -1.62,-0.78 -1.89,-1.56 -1.60,-2.65 -1.31,-3.73 0.13,-4.58 1.57,-5.43 3.31,-5.23 5.04,-5.02 6.49,-4.48 7.95,-3.93 8.91,-3.08 9.86,-2.23 10.46,-1.31 11.05,-0.39 11.39,0.78 11.72,1.97 11.56,3.26 11.40,4.55 10.68,6.53 9.97,8.52 8.32,10.54 6.68,12.56 5.46,13.83 4.23,15.11 2.84,16.25 1.45,17.39 0.30,18.16 -0.85,18.94 -1.97,19.94 -3.09,20.94 -4.80,22.03 -6.51,23.12 -7.74,23.82 -8.97,24.53 -10.70,25.16 -12.42,25.79 -14.19,26.31 -15.95,26.82 -17.44,27.29 -18.92,27.75 -20.83,28.44 -22.73,29.12 -24.28,29.61 -25.83,30.09 -27.58,30.16 -29.34,30.22 -29.53,30.30 -29.73,30.37 -29.94,30.38 -30.16,30.39 -30.36,30.33 -30.56,30.27 -30.74,30.15 -30.91,30.03 -31.04,29.85 -31.16,29.68 -31.23,29.48 -31.29,29.28 -31.29,29.07 -31.29,28.85 -31.22,28.65 -31.15,28.45 -31.01,28.29 -30.88,28.12 -30.71,28.00 -30.53,27.89 -30.32,27.83 -30.12,27.78 -29.90,27.79 -29.69,27.81 -29.50,27.89 -29.30,27.97 -29.14,28.11 -28.98,28.25 -28.87,28.44 -28.77,28.62 -28.73,28.83 -28.68,29.04 -28.71,29.25 -28.74,29.46 -28.83,29.65 -28.92,29.84 -29.07,29.99 -29.22,30.14 -29.41,30.24 -29.60,30.34 -29.81,30.37 -30.02,30.40 -30.22,30.36 -30.43,30.32 -30.62,30.22 -30.81,30.12 -30.95,29.96 -31.09,29.81 -31.18,29.61 -31.27,29.42 -31.29,29.21 -31.31,28.99 -31.26,28.79 -31.21,28.58 -31.09,28.40 -30.98,28.22 -30.82,28.09 -30.65,27.95 -30.65,27.95 -30.65,27.95 -28.22,26.78 -25.79,25.62 -24.08,25.12 -22.37,24.63 -21.31,24.10 -20.24,23.57 -18.71,23.09 -17.18,22.61 -15.53,22.14 -13.89,21.66 -12.51,21.19 -11.13,20.72 -9.98,20.07 -8.83,19.42 -7.39,18.54 -5.95,17.66 -4.60,16.49 -3.24,15.32 -2.25,14.68 -1.26,14.03 -0.05,13.07 1.15,12.11 2.34,10.89 3.53,9.67 4.44,8.70 5.35,7.72 6.23,6.42 7.12,5.12 7.31,3.43 7.51,1.74 6.36,0.63 5.22,-0.47 3.55,-1.02 1.89,-1.56 1.62,-0.78 1.35,0 1.33,0.16 1.31,0.32 1.25,0.47 1.19,0.62 1.10,0.76 1.01,0.89 0.89,1.00 0.76,1.11 0.62,1.19 0.48,1.26 0.32,1.30 0.16,1.34 -0.00,1.34 -0.16,1.34 -0.32,1.30 -0.48,1.26 -0.62,1.19 -0.76,1.11 -0.89,1.00 -1.01,0.89 -1.10,0.76 -1.19,0.62 -1.25,0.47 -1.31,0.32 -1.33,0.16 -1.35,-0.00 -1.35,-0.00 L -1.35,0 Z"></path></g><g transform="translate(571.8181818181818 122.94865541329409) rotate(0 -5.454545454545496 9.090909090909236)" stroke="none"><path fill="#364fc7" d="M 0.98,0.98 Q 0.98,0.98 0.34,1.90 -0.29,2.83 -1.30,4.09 -2.30,5.34 -3.63,6.49 -4.95,7.64 -6.33,9.10 -7.71,10.57 -8.73,11.53 -9.75,12.49 -7.65,12.26 -5.55,12.04 -3.91,12.52 -2.27,13.00 0.29,15.20 2.87,17.39 2.96,17.58 3.06,17.77 3.09,17.98 3.13,18.19 3.09,18.40 3.05,18.61 2.95,18.79 2.85,18.98 2.70,19.13 2.54,19.27 2.35,19.36 2.15,19.45 1.94,19.47 1.73,19.49 1.52,19.44 1.32,19.39 1.13,19.28 0.95,19.17 0.82,19.01 0.68,18.84 0.60,18.64 0.53,18.45 0.52,18.23 0.51,18.02 0.57,17.82 0.63,17.61 0.75,17.44 0.87,17.26 1.04,17.14 1.21,17.01 1.41,16.94 1.61,16.88 1.83,16.88 2.04,16.88 2.24,16.95 2.44,17.02 2.61,17.15 2.78,17.28 2.89,17.46 3.01,17.64 3.07,17.84 3.12,18.05 3.11,18.26 3.09,18.47 3.01,18.67 2.93,18.86 2.79,19.03 2.65,19.19 2.47,19.29 2.29,19.40 2.08,19.45 1.87,19.49 1.66,19.46 1.45,19.44 1.26,19.35 1.07,19.26 0.91,19.11 0.76,18.96 0.76,18.96 0.76,18.96 -1.07,18.21 -2.90,17.46 -4.00,16.95 -5.09,16.44 -6.87,15.99 -8.66,15.53 -10.27,15.04 -11.89,14.55 -12.77,13.11 -13.64,11.67 -12.46,10.20 -11.28,8.73 -10.06,7.77 -8.83,6.81 -8.13,5.87 -7.44,4.94 -6.35,4.10 -5.26,3.26 -4.05,1.78 -2.83,0.29 -1.90,-0.34 -0.98,-0.98 -0.84,-1.08 -0.71,-1.18 -0.56,-1.25 -0.41,-1.32 -0.24,-1.35 -0.08,-1.38 0.08,-1.37 0.25,-1.36 0.40,-1.31 0.56,-1.26 0.71,-1.17 0.85,-1.09 0.97,-0.97 1.09,-0.85 1.17,-0.71 1.26,-0.56 1.31,-0.40 1.36,-0.25 1.37,-0.08 1.38,0.08 1.35,0.24 1.32,0.41 1.25,0.56 1.18,0.71 1.08,0.84 0.98,0.98 0.98,0.98 L 0.98,0.98 Z"></path></g></svg>